<svg width="37" height="28" viewBox="0 0 37 28" fill="none" xmlns="http://www.w3.org/2000/svg">
<g clip-path="url(#clip0_39_57)">
<path d="M0 1.01654C0.28437 0.205134 1.00572 0.179541 1.68252 0.103709C5.12613 -0.293541 8.60601 0.430912 11.605 2.1694C14.604 3.90789 16.962 6.56763 18.3286 9.75332C18.721 10.668 18.9314 11.6614 19.2253 12.6188C19.2452 12.6823 19.2613 12.7477 19.286 12.8349C19.7097 12.2861 20.086 11.7449 20.5182 11.252C23.1145 8.2765 26.3952 6.65748 30.3252 6.32288C32.0523 6.17595 33.7433 6.37501 35.4126 6.82716C35.8761 6.95323 36.205 7.20632 36.3045 7.68027C36.4041 8.15422 36.1946 8.53148 35.8107 8.81585C34.2305 9.99409 33.2248 11.6112 32.3537 13.3335C31.7357 14.5554 31.1423 15.7924 30.4626 16.9801C28.7763 19.9243 26.1431 21.5689 22.8946 22.2883C21.8244 22.5253 20.7287 22.6419 19.6452 22.8125C19.5172 22.8324 19.3883 22.8476 19.2281 22.8694V23.5083C19.2281 24.6192 19.2281 25.7311 19.2281 26.8421C19.2281 27.5482 18.8054 27.9994 18.1665 28.0004C17.5276 28.0013 17.1029 27.5492 17.102 26.8468C17.0982 24.7425 17.0982 22.6378 17.102 20.5328V20.1632C16.0536 19.8788 15.0242 19.6295 14.0109 19.3224C12.3047 18.8058 10.6999 18.074 9.23823 17.0408C6.96327 15.4293 5.61441 13.1705 4.68831 10.6083C4.1063 8.9969 3.54514 7.38547 2.90626 5.79584C2.33662 4.39925 1.48133 3.13714 0.395274 2.09051C0.231287 1.93031 0.129862 1.70661 0 1.51703V1.01654ZM3.33187 2.17392C4.48356 3.75217 5.13287 5.50958 5.74048 7.28689C6.06656 8.22436 6.38221 9.16183 6.73008 10.0889C7.27228 11.524 7.99363 12.8586 9.04201 13.9971C10.5425 15.6256 12.4345 16.6066 14.5114 17.2645C15.4062 17.5488 16.3219 17.764 17.2328 18.0124C18.7684 10.0292 11.8649 1.80708 3.33187 2.17392ZM32.9063 8.53622C25.5933 7.42907 18.8272 13.7677 19.2689 20.7148C19.6481 20.676 20.0187 20.6447 20.3922 20.5982C21.7799 20.4229 23.1325 20.1139 24.4255 19.565C26.5924 18.6446 28.1024 17.0427 29.1801 14.9933C29.5536 14.2837 29.9141 13.567 30.2617 12.8435C30.9906 11.3316 31.7546 9.84243 32.9054 8.53622H32.9063Z" fill="#61B390"/>
</g>
<defs>
<clipPath id="clip0_39_57">
<rect width="36.3273" height="28" fill="white"/>
</clipPath>
</defs>
</svg>
