<svg width="248" height="26" viewBox="0 0 248 26" fill="none" xmlns="http://www.w3.org/2000/svg">
<path fill-rule="evenodd" clip-rule="evenodd" d="M4 12.8889L1.17157 10.0604C-0.390524 11.6225 -0.390524 14.1552 1.17157 15.7173C2.73108 17.2768 5.25793 17.2794 6.82064 15.7251M6.82589 15.7198L6.82379 15.7219L6.82092 15.7248L6.84043 15.7058C6.86295 15.684 6.90372 15.6449 6.96212 15.5902C7.07902 15.4809 7.26599 15.3099 7.51816 15.0913C8.02353 14.6533 8.78458 14.0298 9.76245 13.3313C11.7338 11.9232 14.5016 10.2714 17.7649 9.1836C21.0116 8.10137 24.669 7.60188 28.528 8.37369C32.3576 9.13961 36.6665 11.2122 41.1716 15.7173C42.7337 17.2794 45.2663 17.2794 46.8284 15.7173C48.3905 14.1552 48.3905 11.6225 46.8284 10.0604C41.3335 4.56551 35.6424 1.63813 30.097 0.529047C24.581 -0.574138 19.4884 0.176368 15.2351 1.59414C10.9984 3.00637 7.51616 5.10457 5.11255 6.82144C3.90292 7.68545 2.94522 8.46817 2.27872 9.0458C1.94495 9.33507 1.6827 9.57421 1.49686 9.74806C1.4039 9.83502 1.32992 9.90578 1.27554 9.95843C1.24834 9.98477 1.22603 10.0066 1.20868 10.0237L1.18638 10.0457L1.17804 10.054L1.17457 10.0574C1.17303 10.059 1.17157 10.0604 4 12.8889" fill="#61B390"/>
<path fill-rule="evenodd" clip-rule="evenodd" d="M41.1716 10.0604C42.7311 8.50093 45.2579 8.49834 46.8206 10.0527L46.8404 10.0719C46.8629 10.0937 46.9037 10.1329 46.9621 10.1875C47.079 10.2969 47.266 10.4679 47.5182 10.6864C48.0235 11.1244 48.7846 11.7479 49.7625 12.4464C51.7338 13.8546 54.5016 15.5064 57.7649 16.5941C61.0116 17.6764 64.669 18.1758 68.528 17.404C72.3576 16.6381 76.6665 14.5655 81.1716 10.0604C82.7337 8.49833 85.2663 8.49833 86.8284 10.0604C88.3905 11.6225 88.3905 14.1552 86.8284 15.7173C81.3335 21.2122 75.6424 24.1396 70.097 25.2487C64.581 26.3519 59.4884 25.6014 55.2351 24.1836C50.9984 22.7714 47.5162 20.6732 45.1125 18.9563C43.9029 18.0923 42.9452 17.3096 42.2787 16.7319C41.9449 16.4427 41.6827 16.2035 41.4969 16.0297C41.4039 15.9427 41.3299 15.8719 41.2755 15.8193C41.2483 15.793 41.226 15.7711 41.2087 15.7541L41.1864 15.732L41.178 15.7237L41.1746 15.7203C41.173 15.7187 41.1716 15.7173 44 12.8889L41.1716 15.7173C39.6095 14.1552 39.6095 11.6225 41.1716 10.0604Z" fill="#61B390"/>
<path fill-rule="evenodd" clip-rule="evenodd" d="M84 12.8889L81.1716 10.0604C79.6095 11.6225 79.6095 14.1552 81.1716 15.7173C82.7311 17.2768 85.2579 17.2794 86.8206 15.7251M86.8259 15.7198L86.8238 15.7219L86.8209 15.7248L86.8404 15.7058C86.8629 15.684 86.9037 15.6449 86.9621 15.5902C87.079 15.4809 87.266 15.3099 87.5182 15.0913C88.0235 14.6533 88.7846 14.0298 89.7625 13.3313C91.7338 11.9232 94.5016 10.2714 97.7649 9.1836C101.012 8.10137 104.669 7.60188 108.528 8.37369C112.358 9.13961 116.667 11.2122 121.172 15.7173C122.734 17.2794 125.266 17.2794 126.828 15.7173C128.391 14.1552 128.391 11.6225 126.828 10.0604C121.333 4.56551 115.642 1.63813 110.097 0.529047C104.581 -0.574138 99.4884 0.176368 95.2351 1.59414C90.9984 3.00637 87.5162 5.10457 85.1125 6.82144C83.9029 7.68545 82.9452 8.46817 82.2787 9.0458C81.9449 9.33507 81.6827 9.57421 81.4969 9.74806C81.4039 9.83502 81.3299 9.90578 81.2755 9.95843C81.2483 9.98477 81.226 10.0066 81.2087 10.0237L81.1864 10.0457L81.178 10.054L81.1746 10.0574C81.173 10.059 81.1716 10.0604 84 12.8889" fill="#61B390"/>
<path fill-rule="evenodd" clip-rule="evenodd" d="M121.172 10.0604C122.731 8.50093 125.258 8.49834 126.821 10.0527L126.84 10.0719C126.863 10.0937 126.904 10.1329 126.962 10.1875C127.079 10.2969 127.266 10.4679 127.518 10.6864C128.024 11.1244 128.785 11.7479 129.762 12.4464C131.734 13.8546 134.502 15.5064 137.765 16.5941C141.012 17.6764 144.669 18.1758 148.528 17.404C152.358 16.6381 156.667 14.5655 161.172 10.0604C162.734 8.49833 165.266 8.49833 166.828 10.0604C168.391 11.6225 168.391 14.1552 166.828 15.7173C161.333 21.2122 155.642 24.1396 150.097 25.2487C144.581 26.3519 139.488 25.6014 135.235 24.1836C130.998 22.7714 127.516 20.6732 125.113 18.9563C123.903 18.0923 122.945 17.3096 122.279 16.7319C121.945 16.4427 121.683 16.2035 121.497 16.0297C121.404 15.9427 121.33 15.8719 121.276 15.8193C121.248 15.793 121.226 15.7711 121.209 15.7541L121.186 15.732L121.178 15.7237L121.175 15.7203C121.173 15.7187 121.172 15.7173 124 12.8889L121.172 15.7173C119.609 14.1552 119.609 11.6225 121.172 10.0604Z" fill="#61B390"/>
<path fill-rule="evenodd" clip-rule="evenodd" d="M164 12.8889L161.172 10.0604C159.609 11.6225 159.609 14.1552 161.172 15.7173C162.731 17.2768 165.258 17.2794 166.821 15.7251M166.826 15.7198L166.824 15.7219L166.821 15.7248L166.84 15.7058C166.863 15.684 166.904 15.6449 166.962 15.5902C167.079 15.4809 167.266 15.3099 167.518 15.0913C168.024 14.6533 168.785 14.0298 169.762 13.3313C171.734 11.9232 174.502 10.2714 177.765 9.1836C181.012 8.10137 184.669 7.60188 188.528 8.37369C192.358 9.13961 196.667 11.2122 201.172 15.7173C202.734 17.2794 205.266 17.2794 206.828 15.7173C208.391 14.1552 208.391 11.6225 206.828 10.0604C201.333 4.56551 195.642 1.63813 190.097 0.529047C184.581 -0.574138 179.488 0.176368 175.235 1.59414C170.998 3.00637 167.516 5.10457 165.113 6.82144C163.903 7.68545 162.945 8.46817 162.279 9.0458C161.945 9.33507 161.683 9.57421 161.497 9.74806C161.404 9.83502 161.33 9.90578 161.276 9.95843C161.248 9.98477 161.226 10.0066 161.209 10.0237L161.186 10.0457L161.178 10.054L161.175 10.0574C161.173 10.059 161.172 10.0604 164 12.8889" fill="#61B390"/>
<path fill-rule="evenodd" clip-rule="evenodd" d="M201.172 10.0604C202.731 8.50093 205.258 8.49834 206.821 10.0527L206.84 10.0719C206.863 10.0937 206.904 10.1329 206.962 10.1875C207.079 10.2969 207.266 10.4679 207.518 10.6864C208.024 11.1244 208.785 11.7479 209.762 12.4464C211.734 13.8546 214.502 15.5064 217.765 16.5941C221.012 17.6764 224.669 18.1758 228.528 17.404C232.358 16.6381 236.667 14.5655 241.172 10.0604C242.734 8.49833 245.266 8.49833 246.828 10.0604C248.391 11.6225 248.391 14.1552 246.828 15.7173C241.333 21.2122 235.642 24.1396 230.097 25.2487C224.581 26.3519 219.488 25.6014 215.235 24.1836C210.998 22.7714 207.516 20.6732 205.113 18.9563C203.903 18.0923 202.945 17.3096 202.279 16.7319C201.945 16.4427 201.683 16.2035 201.497 16.0297C201.404 15.9427 201.33 15.8719 201.276 15.8193C201.248 15.793 201.226 15.7711 201.209 15.7541L201.186 15.732L201.178 15.7237L201.175 15.7203C201.173 15.7187 201.172 15.7173 204 12.8889L201.172 15.7173C199.609 14.1552 199.609 11.6225 201.172 10.0604Z" fill="#61B390"/>
</svg>
