<svg width="102" height="88" viewBox="0 0 102 88" fill="none" xmlns="http://www.w3.org/2000/svg">
<path d="M2.07172 48.6093H13.1871V85.9282C13.1871 86.2003 13.2407 86.4697 13.3448 86.7211C13.4489 86.9724 13.6015 87.2008 13.7939 87.3932C13.9863 87.5856 14.2147 87.7382 14.466 87.8423C14.7174 87.9464 14.9868 88 15.2589 88H89.7619C90.3114 88 90.8383 87.7817 91.2269 87.3932C91.6154 87.0047 91.8337 86.4777 91.8337 85.9282V49.9919H99.6148C99.9916 49.9915 100.361 49.8885 100.684 49.694C101.006 49.4995 101.27 49.2207 101.446 48.8877C101.622 48.5546 101.704 48.1799 101.684 47.8037C101.663 47.4275 101.54 47.0641 101.328 46.7525L77.6749 12.0132C77.4849 11.7345 77.2297 11.5063 76.9314 11.3488C76.6332 11.1912 76.3009 11.1089 75.9636 11.1091H71.3522V2.07175C71.3516 1.5221 71.1329 0.995144 70.744 0.606676C70.3551 0.218207 69.828 7.90461e-07 69.2783 1.0743e-06H60.0661C59.7939 -0.0002762 59.5244 0.0531221 59.2729 0.157139C59.0214 0.261156 58.7929 0.41375 58.6005 0.606185C58.4081 0.798621 58.2555 1.02712 58.1514 1.2786C58.0474 1.53008 57.994 1.79961 57.9943 2.07175V11.1091H24.7767C24.6226 11.1103 24.4691 11.1294 24.3194 11.166C24.273 11.1765 24.2308 11.1934 24.1824 11.206C24.0815 11.2371 23.9829 11.2752 23.8873 11.3198C23.8346 11.3451 23.7861 11.3725 23.7356 11.402C23.685 11.4315 23.6534 11.4421 23.6154 11.4674C23.5775 11.4926 23.5332 11.539 23.489 11.5727C23.4447 11.6065 23.4026 11.6423 23.3625 11.6802C23.2739 11.7644 23.1928 11.856 23.1201 11.9542C23.1037 11.9749 23.0861 11.9946 23.0675 12.0132L0.36036 45.3699C0.147965 45.6812 0.0245098 46.0446 0.0032879 46.4209C-0.017934 46.7971 0.0638808 47.1721 0.239923 47.5053C0.415966 47.8385 0.679567 48.1174 1.00234 48.3119C1.32512 48.5065 1.69485 48.6093 2.07172 48.6093ZM38.358 83.8565H31.2386V60.789C32.2718 60.0337 33.5184 59.6266 34.7983 59.6266C36.0781 59.6266 37.3248 60.0337 38.358 60.789V83.8565ZM57.9901 83.8565H42.5036V59.8553C42.5045 59.5816 42.4513 59.3104 42.3471 59.0572C42.243 58.804 42.0899 58.5739 41.8966 58.38C40.9644 57.4478 39.8578 56.7084 38.6399 56.2039C37.4219 55.6994 36.1165 55.4397 34.7983 55.4397C33.48 55.4397 32.1746 55.6994 30.9567 56.2039C29.7387 56.7084 28.6321 57.4478 27.6999 58.38C27.5066 58.5739 27.3535 58.804 27.2494 59.0572C27.1452 59.3104 27.0921 59.5816 27.0929 59.8553V83.8565H17.3306V47.1846L31.3755 26.5555L46.7124 49.0814C46.9026 49.3606 47.1581 49.5891 47.4568 49.747C47.7554 49.905 48.0881 49.9876 48.4259 49.9876H57.9901V83.8565ZM87.6901 83.8565H62.1336V49.9834H87.6901V83.8565ZM57.9901 15.2526V26.3975C57.9901 26.9469 58.2084 27.4739 58.5969 27.8624C58.9854 28.251 59.5124 28.4692 60.0619 28.4692C60.6113 28.4692 61.1383 28.251 61.5268 27.8624C61.9153 27.4739 62.1336 26.9469 62.1336 26.3975V4.14351H67.2066V26.3975C67.2237 26.9358 67.4496 27.4463 67.8365 27.821C68.2233 28.1957 68.7408 28.4052 69.2794 28.4052C69.8179 28.4052 70.3354 28.1957 70.7222 27.821C71.1091 27.4463 71.335 26.9358 71.3522 26.3975V15.2526H74.8655L95.6969 45.8483H60.0914H49.5282L33.1291 21.7587L33.1185 21.7439L28.701 15.2526H57.9901ZM24.783 16.8607L28.8738 22.8652L14.1629 44.47H5.98971L24.783 16.8607Z" fill="#61B390"/>
<path d="M52.247 42.0167L86.0062 42.0294C86.5557 42.0294 87.0827 41.8111 87.4712 41.4226C87.8597 41.034 88.078 40.5071 88.078 39.9576C88.078 39.4081 87.8597 38.8812 87.4712 38.4926C87.0827 38.1041 86.5557 37.8858 86.0062 37.8858L52.247 37.8711C51.7087 37.8883 51.1982 38.1142 50.8235 38.501C50.4487 38.8879 50.2392 39.4053 50.2392 39.9439C50.2392 40.4825 50.4487 40.9999 50.8235 41.3868C51.1982 41.7736 51.7087 41.9995 52.247 42.0167Z" fill="#61B390"/>
</svg>
