<svg width="205" height="48" viewBox="0 0 205 48" fill="none" xmlns="http://www.w3.org/2000/svg">
<g clip-path="url(#clip0_1_342)">
<path d="M10 11.0165C10.2844 10.2051 11.0057 10.1795 11.6825 10.1037C15.1261 9.70646 18.606 10.4309 21.605 12.1694C24.604 13.9079 26.962 16.5676 28.3286 19.7533C28.721 20.668 28.9314 21.6614 29.2253 22.6188C29.2452 22.6823 29.2613 22.7477 29.286 22.8349C29.7097 22.2861 30.086 21.7449 30.5182 21.252C33.1145 18.2765 36.3952 16.6575 40.3252 16.3229C42.0523 16.176 43.7433 16.375 45.4126 16.8272C45.8761 16.9532 46.205 17.2063 46.3045 17.6803C46.4041 18.1542 46.1946 18.5315 45.8107 18.8159C44.2305 19.9941 43.2248 21.6112 42.3537 23.3335C41.7357 24.5554 41.1423 25.7924 40.4626 26.9801C38.7763 29.9243 36.1431 31.5689 32.8946 32.2883C31.8244 32.5253 30.7287 32.6419 29.6452 32.8125C29.5172 32.8324 29.3883 32.8476 29.2281 32.8694V33.5083C29.2281 34.6192 29.2281 35.7311 29.2281 36.8421C29.2281 37.5482 28.8054 37.9994 28.1665 38.0004C27.5276 38.0013 27.1029 37.5492 27.102 36.8468C27.0982 34.7425 27.0982 32.6378 27.102 30.5328V30.1632C26.0536 29.8788 25.0242 29.6295 24.0109 29.3224C22.3047 28.8058 20.6999 28.074 19.2382 27.0408C16.9633 25.4293 15.6144 23.1705 14.6883 20.6083C14.1063 18.9969 13.5451 17.3855 12.9063 15.7958C12.3366 14.3992 11.4813 13.1371 10.3953 12.0905C10.2313 11.9303 10.1299 11.7066 10 11.517V11.0165ZM13.3319 12.1739C14.4836 13.7522 15.1329 15.5096 15.7405 17.2869C16.0666 18.2244 16.3822 19.1618 16.7301 20.0889C17.2723 21.524 17.9936 22.8586 19.042 23.9971C20.5425 25.6256 22.4345 26.6066 24.5114 27.2645C25.4062 27.5488 26.3219 27.764 27.2328 28.0124C28.7684 20.0292 21.8649 11.8071 13.3319 12.1739ZM42.9063 18.5362C35.5933 17.4291 28.8272 23.7677 29.2689 30.7148C29.6481 30.676 30.0187 30.6447 30.3922 30.5982C31.7799 30.4229 33.1325 30.1139 34.4255 29.565C36.5924 28.6446 38.1024 27.0427 39.1801 24.9933C39.5536 24.2837 39.9141 23.567 40.2617 22.8435C40.9906 21.3316 41.7546 19.8424 42.9054 18.5362H42.9063Z" fill="#61B390"/>
</g>
<path d="M58.1533 31.5V16.1H61.7173V28.596H69.4393V31.5H58.1533ZM76.9767 31.676C75.6274 31.676 74.4394 31.412 73.4127 30.884C72.4007 30.356 71.616 29.6373 71.0587 28.728C70.5014 27.804 70.2227 26.7553 70.2227 25.582C70.2227 24.394 70.494 23.3453 71.0367 22.436C71.594 21.512 72.3494 20.7933 73.3027 20.28C74.256 19.752 75.334 19.488 76.5367 19.488C77.6954 19.488 78.7367 19.7373 79.6607 20.236C80.5994 20.72 81.34 21.424 81.8827 22.348C82.4254 23.2573 82.6967 24.35 82.6967 25.626C82.6967 25.758 82.6894 25.912 82.6747 26.088C82.66 26.2493 82.6454 26.4033 82.6307 26.55H73.0167V24.548H80.8267L79.5067 25.142C79.5067 24.526 79.382 23.9907 79.1327 23.536C78.8834 23.0813 78.5387 22.7293 78.0987 22.48C77.6587 22.216 77.1454 22.084 76.5587 22.084C75.972 22.084 75.4514 22.216 74.9967 22.48C74.5567 22.7293 74.212 23.0887 73.9627 23.558C73.7134 24.0127 73.5887 24.5553 73.5887 25.186V25.714C73.5887 26.3593 73.728 26.9313 74.0067 27.43C74.3 27.914 74.7034 28.288 75.2167 28.552C75.7447 28.8013 76.3607 28.926 77.0647 28.926C77.6954 28.926 78.2454 28.8307 78.7147 28.64C79.1987 28.4493 79.6387 28.1633 80.0347 27.782L81.8607 29.762C81.318 30.378 80.636 30.8547 79.8147 31.192C78.9934 31.5147 78.0474 31.676 76.9767 31.676ZM91.9193 31.5V29.19L91.6993 28.684V24.548C91.6993 23.8147 91.472 23.2427 91.0173 22.832C90.5773 22.4213 89.8953 22.216 88.9713 22.216C88.3407 22.216 87.7173 22.3187 87.1013 22.524C86.5 22.7147 85.9867 22.9787 85.5613 23.316L84.3293 20.918C84.9747 20.4633 85.752 20.1113 86.6613 19.862C87.5707 19.6127 88.4947 19.488 89.4333 19.488C91.2373 19.488 92.638 19.9133 93.6353 20.764C94.6327 21.6147 95.1313 22.942 95.1313 24.746V31.5H91.9193ZM88.3113 31.676C87.3873 31.676 86.5953 31.522 85.9353 31.214C85.2753 30.8913 84.7693 30.4587 84.4173 29.916C84.0653 29.3733 83.8893 28.7647 83.8893 28.09C83.8893 27.386 84.058 26.77 84.3953 26.242C84.7473 25.714 85.2973 25.3033 86.0453 25.01C86.7933 24.702 87.7687 24.548 88.9713 24.548H92.1173V26.55H89.3453C88.5387 26.55 87.9813 26.682 87.6733 26.946C87.38 27.21 87.2333 27.54 87.2333 27.936C87.2333 28.376 87.402 28.728 87.7393 28.992C88.0913 29.2413 88.568 29.366 89.1693 29.366C89.7413 29.366 90.2547 29.234 90.7093 28.97C91.164 28.6913 91.494 28.288 91.6993 27.76L92.2273 29.344C91.978 30.1067 91.5233 30.686 90.8633 31.082C90.2033 31.478 89.3527 31.676 88.3113 31.676ZM98.6555 31.5V19.4C98.6555 18.0653 99.0515 17.002 99.8435 16.21C100.635 15.4033 101.765 15 103.231 15C103.73 15 104.207 15.0513 104.661 15.154C105.131 15.2567 105.527 15.418 105.849 15.638L104.947 18.124C104.757 17.992 104.544 17.8893 104.309 17.816C104.075 17.7427 103.825 17.706 103.561 17.706C103.063 17.706 102.674 17.8527 102.395 18.146C102.131 18.4247 101.999 18.85 101.999 19.422V20.522L102.087 21.996V31.5H98.6555ZM96.8295 22.568V19.928H105.035V22.568H96.8295ZM118.058 31.764C116.928 31.764 115.924 31.5807 115.044 31.214C114.164 30.8473 113.467 30.3487 112.954 29.718C112.44 29.0873 112.184 28.3613 112.184 27.54C112.184 26.7773 112.352 26.0953 112.69 25.494C113.027 24.878 113.562 24.306 114.296 23.778C115.029 23.2353 115.96 22.7073 117.09 22.194C117.911 21.8127 118.556 21.4753 119.026 21.182C119.495 20.8887 119.825 20.61 120.016 20.346C120.206 20.0673 120.302 19.7887 120.302 19.51C120.302 19.1287 120.17 18.8207 119.906 18.586C119.656 18.3513 119.282 18.234 118.784 18.234C118.256 18.234 117.845 18.366 117.552 18.63C117.258 18.894 117.112 19.2313 117.112 19.642C117.112 19.862 117.156 20.082 117.244 20.302C117.332 20.5073 117.5 20.7493 117.75 21.028C117.999 21.292 118.351 21.6367 118.806 22.062L126.924 29.586L125.054 31.764L116.1 23.448C115.586 22.9787 115.176 22.5387 114.868 22.128C114.56 21.7173 114.332 21.314 114.186 20.918C114.054 20.522 113.988 20.1113 113.988 19.686C113.988 18.938 114.186 18.278 114.582 17.706C114.978 17.134 115.535 16.694 116.254 16.386C116.972 16.0633 117.816 15.902 118.784 15.902C119.678 15.902 120.448 16.0487 121.094 16.342C121.754 16.6207 122.267 17.024 122.634 17.552C123.015 18.08 123.206 18.7107 123.206 19.444C123.206 20.0893 123.044 20.6833 122.722 21.226C122.399 21.754 121.893 22.2527 121.204 22.722C120.529 23.1913 119.642 23.668 118.542 24.152C117.794 24.4893 117.2 24.8193 116.76 25.142C116.334 25.45 116.026 25.7653 115.836 26.088C115.645 26.4107 115.55 26.77 115.55 27.166C115.55 27.5327 115.66 27.8627 115.88 28.156C116.114 28.4493 116.437 28.6767 116.848 28.838C117.258 28.9993 117.742 29.08 118.3 29.08C119.194 29.08 120.016 28.8747 120.764 28.464C121.512 28.0387 122.142 27.4153 122.656 26.594C123.184 25.758 123.558 24.746 123.778 23.558L126.528 24.416C126.22 25.912 125.67 27.21 124.878 28.31C124.086 29.41 123.11 30.2607 121.952 30.862C120.793 31.4633 119.495 31.764 118.058 31.764ZM140.514 31.764C139.282 31.764 138.101 31.6027 136.972 31.28C135.843 30.9427 134.933 30.51 134.244 29.982L135.454 27.298C136.114 27.7673 136.891 28.156 137.786 28.464C138.695 28.7573 139.612 28.904 140.536 28.904C141.24 28.904 141.805 28.838 142.23 28.706C142.67 28.5593 142.993 28.3613 143.198 28.112C143.403 27.8627 143.506 27.5767 143.506 27.254C143.506 26.8433 143.345 26.5207 143.022 26.286C142.699 26.0367 142.274 25.8387 141.746 25.692C141.218 25.5307 140.631 25.384 139.986 25.252C139.355 25.1053 138.717 24.9293 138.072 24.724C137.441 24.5187 136.862 24.2547 136.334 23.932C135.806 23.6093 135.373 23.184 135.036 22.656C134.713 22.128 134.552 21.4533 134.552 20.632C134.552 19.752 134.787 18.9527 135.256 18.234C135.74 17.5007 136.459 16.9213 137.412 16.496C138.38 16.056 139.59 15.836 141.042 15.836C142.01 15.836 142.963 15.9533 143.902 16.188C144.841 16.408 145.669 16.7453 146.388 17.2L145.288 19.906C144.569 19.4953 143.851 19.1947 143.132 19.004C142.413 18.7987 141.709 18.696 141.02 18.696C140.331 18.696 139.766 18.7767 139.326 18.938C138.886 19.0993 138.571 19.312 138.38 19.576C138.189 19.8253 138.094 20.1187 138.094 20.456C138.094 20.852 138.255 21.1747 138.578 21.424C138.901 21.6587 139.326 21.8493 139.854 21.996C140.382 22.1427 140.961 22.2893 141.592 22.436C142.237 22.5827 142.875 22.7513 143.506 22.942C144.151 23.1327 144.738 23.3893 145.266 23.712C145.794 24.0347 146.219 24.46 146.542 24.988C146.879 25.516 147.048 26.1833 147.048 26.99C147.048 27.8553 146.806 28.6473 146.322 29.366C145.838 30.0847 145.112 30.664 144.144 31.104C143.191 31.544 141.981 31.764 140.514 31.764ZM154.081 31.676C152.688 31.676 151.603 31.324 150.825 30.62C150.048 29.9013 149.659 28.838 149.659 27.43V17.046H153.091V27.386C153.091 27.8847 153.223 28.2733 153.487 28.552C153.751 28.816 154.111 28.948 154.565 28.948C155.108 28.948 155.57 28.8013 155.951 28.508L156.875 30.928C156.523 31.1773 156.098 31.368 155.599 31.5C155.115 31.6173 154.609 31.676 154.081 31.676ZM147.833 22.568V19.928H156.039V22.568H147.833ZM164.311 31.676C162.961 31.676 161.773 31.412 160.747 30.884C159.735 30.356 158.95 29.6373 158.393 28.728C157.835 27.804 157.557 26.7553 157.557 25.582C157.557 24.394 157.828 23.3453 158.371 22.436C158.928 21.512 159.683 20.7933 160.637 20.28C161.59 19.752 162.668 19.488 163.871 19.488C165.029 19.488 166.071 19.7373 166.995 20.236C167.933 20.72 168.674 21.424 169.217 22.348C169.759 23.2573 170.031 24.35 170.031 25.626C170.031 25.758 170.023 25.912 170.009 26.088C169.994 26.2493 169.979 26.4033 169.965 26.55H160.351V24.548H168.161L166.841 25.142C166.841 24.526 166.716 23.9907 166.467 23.536C166.217 23.0813 165.873 22.7293 165.433 22.48C164.993 22.216 164.479 22.084 163.893 22.084C163.306 22.084 162.785 22.216 162.331 22.48C161.891 22.7293 161.546 23.0887 161.297 23.558C161.047 24.0127 160.923 24.5553 160.923 25.186V25.714C160.923 26.3593 161.062 26.9313 161.341 27.43C161.634 27.914 162.037 28.288 162.551 28.552C163.079 28.8013 163.695 28.926 164.399 28.926C165.029 28.926 165.579 28.8307 166.049 28.64C166.533 28.4493 166.973 28.1633 167.369 27.782L169.195 29.762C168.652 30.378 167.97 30.8547 167.149 31.192C166.327 31.5147 165.381 31.676 164.311 31.676ZM187.474 19.488C188.412 19.488 189.241 19.6787 189.96 20.06C190.693 20.4267 191.265 20.9987 191.676 21.776C192.101 22.5387 192.314 23.5213 192.314 24.724V31.5H188.882V25.252C188.882 24.2987 188.684 23.5947 188.288 23.14C187.892 22.6853 187.334 22.458 186.616 22.458C186.117 22.458 185.67 22.5753 185.274 22.81C184.878 23.03 184.57 23.3673 184.35 23.822C184.13 24.2767 184.02 24.856 184.02 25.56V31.5H180.588V25.252C180.588 24.2987 180.39 23.5947 179.994 23.14C179.612 22.6853 179.062 22.458 178.344 22.458C177.845 22.458 177.398 22.5753 177.002 22.81C176.606 23.03 176.298 23.3673 176.078 23.822C175.858 24.2767 175.748 24.856 175.748 25.56V31.5H172.316V19.664H175.594V22.898L174.978 21.952C175.388 21.1453 175.968 20.5367 176.716 20.126C177.478 19.7007 178.344 19.488 179.312 19.488C180.397 19.488 181.343 19.7667 182.15 20.324C182.971 20.8667 183.514 21.7027 183.778 22.832L182.568 22.502C182.964 21.578 183.594 20.8447 184.46 20.302C185.34 19.7593 186.344 19.488 187.474 19.488Z" fill="#01352C"/>
<defs>
<clipPath id="clip0_1_342">
<rect width="36.3273" height="28" fill="white" transform="translate(10 10)"/>
</clipPath>
</defs>
</svg>
