<svg width="93" height="93" viewBox="0 0 93 93" fill="none" xmlns="http://www.w3.org/2000/svg">
<path d="M77.9844 88.4196H14.0776C13.5893 88.4351 13.1262 88.64 12.7863 88.9909C12.4464 89.3419 12.2563 89.8112 12.2563 90.2998C12.2563 90.7883 12.4464 91.2577 12.7863 91.6086C13.1262 91.9595 13.5893 92.1644 14.0776 92.18H77.9844C78.4726 92.1644 78.9357 91.9595 79.2756 91.6086C79.6155 91.2577 79.8056 90.7883 79.8056 90.2998C79.8056 89.8112 79.6155 89.3419 79.2756 88.9909C78.9357 88.64 78.4726 88.4351 77.9844 88.4196Z" fill="#61B390"/>
<path d="M90.2408 80.5507H69.6815V15.3898C69.6817 15.07 69.6004 14.7553 69.4452 14.4757C69.29 14.196 69.066 13.9606 68.7945 13.7916L47.0232 0.282963C47.0041 0.271493 46.9831 0.267666 46.9639 0.256196C46.8497 0.191986 46.7293 0.139475 46.6045 0.0994406C46.5663 0.0860582 46.5319 0.0745773 46.4936 0.0650184C46.1913 -0.0216728 45.8707 -0.0216728 45.5683 0.0650184C45.5301 0.0650184 45.4957 0.0860582 45.4575 0.0994406C45.3327 0.139475 45.2123 0.191986 45.098 0.256196C45.0789 0.267666 45.0579 0.271493 45.0407 0.282963L23.2675 13.7916C22.996 13.9606 22.772 14.196 22.6168 14.4757C22.4616 14.7553 22.3802 15.07 22.3804 15.3898V80.5507H1.82123C1.33294 80.5663 0.869849 80.7712 0.52995 81.1221C0.190051 81.473 0 81.9424 0 82.4309C0 82.9195 0.190051 83.3888 0.52995 83.7398C0.869849 84.0907 1.33294 84.2956 1.82123 84.3112H90.2408C90.729 84.2956 91.1921 84.0907 91.532 83.7398C91.8719 83.3888 92.062 82.9195 92.062 82.4309C92.062 81.9424 91.8719 81.473 91.532 81.1221C91.1921 80.7712 90.729 80.5663 90.2408 80.5507ZM44.1517 80.5507H26.139V16.4355L44.1517 5.25932V80.5507ZM47.9103 80.5507V73.9933L58.4824 80.5507H47.9103ZM65.923 80.5507H65.6114L47.9103 69.5695V62.5361L65.923 73.7142V80.5507ZM65.923 69.2903L47.9103 58.1122V51.0807L65.923 62.2569V69.2903ZM65.923 57.8331L47.9103 46.6568V39.6235L65.923 50.8016V57.8331ZM65.923 46.3777L47.9103 35.2015V28.1681L65.923 39.3462V46.3777ZM65.923 34.9224L47.9103 23.7442V16.7147L65.923 27.889V34.9224ZM65.923 23.467L47.9103 12.3004V5.26886L65.923 16.4451V23.467Z" fill="#61B390"/>
</svg>
