<svg width="81" height="112" viewBox="0 0 81 112" fill="none" xmlns="http://www.w3.org/2000/svg">
<g clip-path="url(#clip0_34_34)">
<path d="M40.7113 0C51.4507 8.83316 53.518 24.4858 47.1281 36.0187C45.8901 38.2472 44.0256 40.1266 42.4713 42.182C42.2029 42.537 41.8568 42.9665 41.8538 43.3752C41.8091 47.7844 41.824 52.1935 41.824 56.9099C43.3484 55.5794 44.7117 54.4159 46.0332 53.2078C46.2063 53.0496 46.2033 52.6678 46.2272 52.3874C47.1549 41.5645 52.7394 33.8202 62.1155 28.7189C67.0175 26.0357 72.6565 25.0122 78.1888 25.8014C79.6267 25.9893 80.1428 26.583 80.1129 28.0477C79.9369 36.681 76.2348 43.6199 69.7733 49.1387C64.5438 53.5956 58.4373 56.0805 51.5491 55.9075C49.1626 55.8479 47.486 56.4564 45.908 58.0703C44.8161 59.189 43.5423 60.1257 42.3848 61.1818C42.0973 61.435 41.9082 61.7814 41.8508 62.1602C41.7882 63.3923 41.824 64.6333 41.824 66.0592H59.5291C61.3906 66.0592 61.9604 66.6171 61.9634 68.4458C61.9634 71.9092 61.9634 75.3727 61.9634 78.8361C61.9634 79.9757 61.665 80.8289 60.4509 81.163C60.3253 81.2368 60.2187 81.3388 60.1394 81.4611C60.0602 81.5833 60.0106 81.7223 59.9945 81.867C59.4545 87.9288 58.9444 93.9906 58.4223 100.064C58.1419 103.396 57.8595 106.734 57.5751 110.079C57.4558 111.415 56.8114 111.997 55.4123 112C51.5133 112 47.6113 112 43.7123 112H22.8302C20.918 112 20.381 111.514 20.2169 109.581C19.4592 100.685 18.7045 91.79 17.9527 82.8962C17.905 82.3533 17.8274 81.8163 17.7677 81.2972C16.1091 80.7245 15.8257 80.3128 15.8108 78.5468C15.8108 75.2295 15.8108 71.9122 15.8108 68.5949C15.8108 66.632 16.4074 66.0503 18.3495 66.0503H38.274C38.274 64.6213 38.3039 63.2849 38.2502 61.9514C38.1741 61.6429 37.9926 61.3707 37.7371 61.1818C35.8487 59.5172 33.9634 57.8555 32.0303 56.2446C31.6643 55.9709 31.2124 55.8376 30.7564 55.8687C17.2815 57.1813 3.67526 47.1698 0.626466 33.4652C0.202856 31.6216 0.134244 29.7153 1.20047e-06 27.8329C-0.0865106 26.5949 0.536971 25.9744 1.7899 25.8044C7.24508 25.0261 12.8068 25.9842 17.6872 28.5429C25.2973 32.4658 30.5357 38.4769 32.9163 46.782C33.4353 48.5719 33.5338 50.508 33.8858 52.3635C33.9736 52.8414 34.201 53.2825 34.5391 53.6314C35.6697 54.6993 36.8749 55.6868 38.1995 56.8353C38.2323 56.3759 38.2681 56.1074 38.2681 55.8389C38.2681 51.7907 38.2919 47.7456 38.2412 43.6974C38.2172 43.1408 37.9938 42.6114 37.6118 42.2058C27.7464 32.6597 26.6546 15.954 34.7897 4.91626C36.1082 3.12636 37.8445 1.63478 39.3897 0.00596633L40.7113 0ZM56.4654 81.16H34.5809C34.2165 81.175 33.8516 81.1631 33.489 81.1242C33.0473 81.081 32.64 80.8668 32.354 80.5274C32.0681 80.1879 31.9262 79.7501 31.9587 79.3075C31.9559 78.8805 32.1189 78.4692 32.4132 78.1599C32.7075 77.8505 33.1102 77.6674 33.5368 77.6488C33.9334 77.6117 34.3319 77.5998 34.73 77.613H58.3269V69.6927H19.5099V77.6101H25.7746C26.1032 77.6006 26.4321 77.6135 26.759 77.6488C27.1983 77.6957 27.6022 77.9113 27.8855 78.2503C28.1688 78.5892 28.3093 79.025 28.2774 79.4656C28.2387 80.4291 27.5585 81.1153 26.4875 81.1421C24.8199 81.1839 23.1524 81.1421 21.3446 81.1421C22.1351 90.2945 22.9107 99.3096 23.6953 108.423H24.8886C34.2199 108.423 43.5513 108.405 52.8826 108.45C53.9476 108.45 54.2041 108.101 54.2817 107.105C54.6516 102.2 55.1051 97.3019 55.5227 92.4006C55.8359 88.7164 56.1432 85.0202 56.4654 81.16ZM29.8585 49.5922C27.5257 36.7108 14.3192 27.8687 3.68123 29.3215C4.36139 42.877 17.8035 52.6559 27.3079 52.1249C25.9237 50.9316 24.5783 49.7622 23.2359 48.5928C22.3022 47.7784 21.3386 46.9968 20.4526 46.1347C20.1213 45.8349 19.9203 45.4176 19.8925 44.9717C19.8646 44.5259 20.0121 44.0868 20.3034 43.7481C20.918 42.9934 21.8636 42.883 22.7496 43.4707C22.9853 43.641 23.2114 43.8243 23.4268 44.0196L29.8585 49.5922ZM52.6589 52.2442C65.4 52.0563 76.384 39.9446 76.3482 29.244C63.4162 28.0507 51.6983 39.0884 50.3708 49.4877L56.6026 44.1001C57.9659 42.9248 58.9235 42.7965 59.7379 43.6795C60.5523 44.5625 60.2988 45.6305 58.9384 46.8118L52.6589 52.2442ZM41.824 37.3731C49.5623 28.2536 48.6853 12.231 40.0341 4.37034C30.5685 13.4242 31.3233 29.6616 38.28 37.2568V36.1112C38.28 33.5576 38.28 31.005 38.28 28.4534C38.28 27.4839 38.5992 26.7232 39.6105 26.4577C40.8545 26.1296 41.8091 26.9648 41.821 28.4206C41.8389 31.3232 41.824 34.2527 41.824 37.3731Z" fill="#61B390"/>
</g>
<defs>
<clipPath id="clip0_34_34">
<rect width="80.1129" height="112" fill="white"/>
</clipPath>
</defs>
</svg>
